<svg xmlns="http://www.w3.org/2000/svg" width="66.667" height="22.058" viewBox="0 0 38.4 12.71"
     shape-rendering="geometricPrecision" text-rendering="geometricPrecision" image-rendering="optimizeQuality"
     fill-rule="evenodd" clip-rule="evenodd">
    <path d="M8.39 3.93l1.93.13-.19-2.36c-.84.11-1.75.74-2.12 1.2l.38 1.03zm-.51 3.13c-1.56 0-2.83 1.27-2.83 2.83s1.27 2.83 2.83 2.83 2.83-1.27 2.83-2.83-1.27-2.83-2.83-2.83zm23.87 0c-1.56 0-2.83 1.27-2.83 2.83s1.26 2.83 2.83 2.83c1.56 0 2.83-1.26 2.83-2.83 0-1.56-1.27-2.83-2.83-2.83zM10.75 4l5.24.33-.4-3.49c-1.83-.01-3.45-.13-5.03.57l.19 2.6zm6.39.23l6.42.37c.16-.75.61-1.14 1.3-1.22-1.64-1.43-5.41-3.02-8.3-2.46l.57 3.31zm18.81 6.46c-.2-.71.17-4.98-3.91-4.89-4.91.04-4.35 4.03-4.46 5.37l-15.93.01c-.06-1.22.03-5.07-3.89-5.38-3.26.26-3.77 2.47-4.07 4.9C-1.83 11.53.43 7.56.5 6.74.64 5.23.29 4.3 1.62 3.75c.94-.38 2.36-.44 3.38-.83 1.84-.71 3.19-1.87 5.53-2.55 1.63-.47 6.15-.4 7.98-.28 4.07.28 5.99 2.08 8.78 3.3 1.01.44 2.44.46 3.61.65 1.94.3 5.41.7 6.36 1.91.77.99 2.66 5.2-1.32 4.73z"
          fill="#fefefe"/>
</svg>