<svg xmlns="http://www.w3.org/2000/svg" width="82.573" height="41.458" viewBox="0 0 70.9 35.6"
     shape-rendering="geometricPrecision" text-rendering="geometricPrecision" image-rendering="optimizeQuality"
     fill-rule="evenodd" clip-rule="evenodd">
    <path d="M47.36 16.87l-.08-7.79h-5.2l-.03 7.8h5.31zM7.95 24.89a5.35 5.35 0 100 10.7 5.35 5.35 0 000-10.7zm12.49 0a5.35 5.35 0 100 10.7 5.35 5.35 0 000-10.7zm40.16 0a5.35 5.35 0 100 10.7 5.35 5.35 0 000-10.7zm7.58-7.83c1.61 1.8.97 4.88 1.06 7.81l.02 1.54 1.62.7.01 4.61-3.8.09c1.12-11-13.82-10.43-13.28-.01-4.47-.1-24.04.58-26.53-.29-.86-4.11-.77-6.3-4.6-7.56-5.33-1.75-6.29 2.57-8.4 3.42-1.28-.79-1.52-2.06-3.38-3.03-3.01-1.57-6.95-.3-8.61 2.81-.44.82-.56 1.35-.66 2.46-.21 2.25-.19 1.86-.91 2.24-1-.81-.67-1.46-.65-3.06.02-1.07 0-2.08.08-3.15 4.53-1.95 3.83-2.73 6.7-3.22 3.9-.66 5.28.96 7.79 2.11 2.29-1.37 4.25-3.05 8.07-2.07 4.65 1.2 2.67 3.52 7.28 2.72.47-3.68-.66-18.41.44-20.18 1.1-1.43 8.75-1.13 10.41-.97l.03-4.01 2.56-.03-.04 4.97c2.69 1.31 3.23 1.88 7.41 3.11 2.33.69 2.45 5.96 4.18 7.75 1.36.79 10.99 1.06 13.2 1.22zm-15.74-.27c-.04-1.56-.49-6.51-2.01-7.07-.89 0-.71.71-.71 1.07l.04 6.08 2.69-.08zM38.26 9.02h-5.15l-.01 2.68 5.23-.03-.07-2.65z"
          fill="#999"/>
</svg>