<svg xmlns="http://www.w3.org/2000/svg" width="67.984" height="39.939" viewBox="0 0 43.71 25.68"
     shape-rendering="geometricPrecision" text-rendering="geometricPrecision" image-rendering="optimizeQuality"
     fill-rule="evenodd" clip-rule="evenodd">
    <defs>
        <style>.str1{stroke:#fff;stroke-width:.86;stroke-miterlimit:22.9256}.fil0{fill:#999}</style>
    </defs>
    <g id="Слой_x0020_1">
        <path class="fil0"
              d="M43.47 13.22c0 1.66 0 1.73-.86 1.72 0 1.49.01 2.97.03 3.86.01 1-.61 1.29-.88 1.29-1.08 0-.23-.34-1.2-.87h-.54a3.478 3.478 0 00-2.95-1.62c-1.25 0-2.34.65-2.96 1.64-7.43.02-14.89.07-22.32.01a3.487 3.487 0 00-5.88-.07l-.65-.01-.14 2.19c-.09.53-.65 1.07-1.08 1.11v-3.25H.25v-7.96l2.05.01.02 1.97h17.15c1.1.01 1.63-1.87 1.71-3.43.09-1.71 0-6.35 0-7.72 0-1.71.93-1.76 1.71-1.71 2.35 0 2.58-.09 3.86-.09.58 0 2.68-.04 4.09-.02 2.14.02 1.69.84 1.93.84 1.62 2.16 3.35 5.05 5.35 7.29.93.64 2.53 2.14 3.91 3.36 1.08.95 1.44.03 1.44 1.48zm-7.3-4.04l-5.08-.01-.05-5.81c.09-.34.32-.15.98-.35 1.45 1.16 2.6 2.56 4.16 6.17zm-8.6-5.94h-3.25c-.6 0-1.08.49-1.08 1.08v3.77c0 .6.49 1.08 1.08 1.08h3.25c.6 0 1.08-.49 1.08-1.08V4.32c0-.6-.49-1.08-1.08-1.08z"
              stroke="#999" stroke-width=".49" stroke-miterlimit="22.926"/>
        <path class="fil0 str1"
              d="M10.36 16.89c-2.31 0-4.18 1.87-4.18 4.18 0 2.31 1.87 4.18 4.18 4.18 2.31 0 4.18-1.87 4.18-4.18 0-2.31-1.87-4.18-4.18-4.18zM36.6 16.89c-2.31 0-4.18 1.87-4.18 4.18 0 2.31 1.87 4.18 4.18 4.18 2.31 0 4.18-1.87 4.18-4.18 0-2.31-1.87-4.18-4.18-4.18z"/>
    </g>
</svg>